<?xml version="1.0" standalone="no"?>
<!DOCTYPE svg PUBLIC "-//W3C//DTD SVG 20010904//EN"
 "http://www.w3.org/TR/2001/REC-SVG-20010904/DTD/svg10.dtd">
<svg version="1.0" xmlns="http://www.w3.org/2000/svg"
 width="512.000000pt" height="512.000000pt" viewBox="0 0 512.000000 512.000000"
 preserveAspectRatio="xMidYMid meet">

<g transform="translate(0.000000,512.000000) scale(0.100000,-0.100000)"
fill="#000000" stroke="none">
<path d="M3785 4929 c-149 -17 -339 -91 -462 -178 -30 -21 -93 -74 -142 -119
l-89 -82 -36 15 c-42 18 -58 18 -110 4 -30 -8 -74 -45 -194 -162 -182 -179
-206 -214 -199 -289 2 -29 7 -62 11 -73 6 -17 -120 -146 -733 -759 -724 -724
-740 -739 -766 -728 -14 7 -47 12 -74 12 -68 0 -111 -32 -283 -207 -112 -115
-149 -159 -157 -189 -14 -52 -14 -68 4 -110 l15 -36 -82 -89 c-109 -118 -142
-165 -199 -285 -58 -119 -87 -224 -98 -352 -26 -298 70 -576 274 -791 94 -100
180 -163 300 -222 168 -82 347 -115 538 -98 127 11 232 40 351 98 120 57 167
90 285 199 l89 82 36 -15 c42 -18 58 -18 110 -4 30 8 74 45 194 162 199 196
225 240 197 333 l-15 49 738 738 c611 612 740 737 757 731 11 -4 44 -9 73 -11
75 -7 110 17 289 199 117 120 154 164 162 194 14 52 14 68 -4 110 l-15 36 82
89 c103 112 139 163 194 271 223 442 98 980 -297 1278 -213 160 -477 231 -744
199z m235 -140 c199 -24 370 -109 515 -254 106 -106 170 -208 214 -340 109
-328 28 -661 -225 -925 l-73 -75 -43 41 c-56 54 -77 64 -135 64 -37 0 -60 -7
-94 -28 l-45 -29 -29 41 c-162 225 -596 659 -821 821 l-41 29 29 45 c21 34 28
57 28 94 0 58 -10 79 -63 135 l-41 42 54 56 c108 109 261 207 390 249 60 20
192 42 255 44 22 1 79 -4 125 -10z m-935 -426 c41 -42 75 -84 75 -92 0 -21
-290 -311 -311 -311 -8 0 -50 36 -93 79 -64 66 -76 83 -67 98 15 27 296 303
309 303 6 0 45 -35 87 -77z m180 -422 c162 -130 344 -300 474 -441 127 -140
291 -339 291 -356 0 -6 -9 -19 -20 -29 -19 -18 -22 -16 -114 73 -131 127 -227
172 -369 172 -122 0 -167 45 -167 165 0 144 -44 239 -172 371 -89 92 -91 95
-73 114 10 11 23 20 29 20 6 0 61 -40 121 -89z m-548 -61 c80 -70 160 -77 239
-22 l42 30 86 -88 c107 -109 126 -149 136 -285 8 -111 27 -160 81 -214 54 -55
104 -73 214 -81 134 -9 175 -28 285 -136 l88 -86 -30 -42 c-56 -80 -48 -159
24 -241 l41 -47 -736 -735 -735 -736 -47 41 c-82 72 -161 80 -241 24 l-42 -30
-86 88 c-107 109 -126 149 -136 285 -8 111 -27 160 -81 214 -54 55 -104 73
-214 81 -134 9 -175 28 -285 136 l-88 86 30 42 c56 80 48 159 -24 241 l-41 47
734 734 c404 404 736 734 737 734 2 0 24 -18 49 -40z m1645 -797 c43 -43 78
-82 78 -87 0 -12 -278 -294 -303 -307 -15 -9 -32 3 -98 67 -43 43 -79 85 -79
93 0 20 290 311 310 311 8 0 50 -35 92 -77z m-3274 -726 c39 -40 72 -79 72
-87 0 -19 -290 -310 -310 -310 -16 0 -170 148 -170 164 0 5 66 76 147 158 95
96 154 148 168 148 12 0 49 -29 93 -73z m137 -426 c130 -126 227 -171 368
-171 122 0 167 -45 167 -165 0 -144 44 -239 172 -371 89 -92 91 -95 73 -114
-10 -11 -23 -20 -29 -20 -17 0 -216 164 -356 291 -68 63 -176 171 -239 239
-113 124 -278 323 -288 348 -5 11 23 52 35 52 3 0 47 -40 97 -89z m-514 -47
c46 -49 79 -64 136 -64 36 0 60 7 93 28 l44 28 97 -121 c194 -241 429 -476
674 -674 l121 -97 -28 -44 c-21 -33 -28 -57 -28 -93 0 -58 10 -79 63 -134 l41
-43 -44 -46 c-215 -221 -495 -328 -771 -294 -121 14 -253 58 -354 118 -107 63
-244 200 -307 307 -125 213 -158 481 -86 715 25 82 90 208 141 274 43 55 158
176 167 176 3 0 22 -16 41 -36z m1653 -803 c64 -66 76 -83 67 -98 -15 -29
-296 -303 -310 -303 -20 0 -151 131 -158 158 -5 21 15 44 143 173 82 82 156
149 165 149 8 0 50 -36 93 -79z"/>
<path d="M3446 3549 c-33 -26 -36 -79 -6 -109 30 -30 83 -27 109 6 28 35 26
69 -4 99 -30 30 -64 32 -99 4z"/>
<path d="M1571 1674 c-28 -35 -26 -69 4 -99 30 -30 64 -32 99 -4 33 26 36 79
6 109 -30 30 -83 27 -109 -6z"/>
</g>
</svg>
