<?xml version="1.0" standalone="no"?>
<!DOCTYPE svg PUBLIC "-//W3C//DTD SVG 20010904//EN"
 "http://www.w3.org/TR/2001/REC-SVG-20010904/DTD/svg10.dtd">
<svg version="1.0" xmlns="http://www.w3.org/2000/svg"
 width="512.000000pt" height="512.000000pt" viewBox="0 0 512.000000 512.000000"
 preserveAspectRatio="xMidYMid meet">

<g transform="translate(0.000000,512.000000) scale(0.100000,-0.100000)"
fill="#000000" stroke="none">
<path d="M2549 4487 c-59 -40 -76 -75 -83 -179 -4 -51 -9 -127 -12 -169 l-6
-76 -843 -487 c-463 -267 -847 -486 -853 -486 -6 0 -78 32 -159 71 -134 64
-152 71 -196 66 -116 -11 -178 -124 -125 -227 22 -44 30 -48 238 -154 255
-128 250 -127 389 -47 49 28 91 51 94 51 3 0 7 -35 9 -77 6 -125 68 -222 176
-275 69 -33 178 -37 255 -8 180 67 254 292 153 463 -31 53 -59 79 -123 114
l-51 28 351 203 c194 111 371 214 395 228 l43 26 -8 -39 c-33 -154 28 -296
158 -368 49 -27 62 -30 149 -30 84 0 101 3 146 27 153 80 217 275 141 424 -37
72 -115 140 -188 162 l-58 18 91 54 c125 75 125 74 143 341 9 118 12 228 9
244 -21 103 -151 159 -235 102z"/>
<path d="M3740 2888 c-63 -35 -859 -475 -1769 -978 -1223 -677 -1659 -923
-1674 -944 -13 -19 -22 -50 -25 -85 -5 -70 22 -115 88 -148 l44 -23 2156 0
2156 0 44 22 c25 13 55 38 67 57 l23 34 0 1004 c0 1112 4 1048 -64 1096 -31
22 -34 22 -481 25 l-450 2 -115 -62z m790 -1058 l0 -800 -1737 0 c-1053 0
-1733 4 -1727 9 5 5 653 365 1439 800 l1430 791 298 0 297 0 0 -800z"/>
</g>
</svg>
